<svg width="359" height="361" viewBox="0 0 359 361" fill="none" xmlns="http://www.w3.org/2000/svg">
    <path d="M354.357 207.937L271.149 256.102L188.086 207.937L211.565 194.359L271.149 159.916L354.357 207.937ZM262.708 49.0135L179.5 97.1777L96.439 49.1562L179.501 1.13431L262.708 49.0135ZM183.646 200.649V104.609L266.854 56.4446V152.627L183.646 200.649ZM92.1456 152.629V56.5887L175.206 104.464V200.504L92.1456 152.629ZM170.911 207.937L87.8512 255.958L4.79136 207.937L87.8513 160.062L140.285 190.273L140.285 190.273L170.911 207.937ZM266.858 359.576L183.65 311.411V215.371L266.858 263.393V359.576ZM275.299 359.577V263.393L358.507 215.371V311.555L275.299 359.577ZM0.500763 311.555V215.515L83.5608 263.39V359.43L0.500763 311.555ZM92.1495 263.39L175.21 215.515V311.555L92.1495 359.43V263.39Z" fill="#F7F7F7" stroke="#F7F7F7"/>
</svg>
