<svg width="37" height="50" viewBox="0 0 37 50" fill="none" xmlns="http://www.w3.org/2000/svg">
<path d="M20.7836 48.8765C25.7266 42.5907 37 27.356 37 18.7986C37 8.42023 28.7135 0 18.5 0C8.28646 0 0 8.42023 0 18.7986C0 27.356 11.2734 42.5907 16.2164 48.8765C17.4016 50.3745 19.5984 50.3745 20.7836 48.8765ZM18.5 12.5324C20.1355 12.5324 21.704 13.1926 22.8605 14.3678C24.017 15.5429 24.6667 17.1367 24.6667 18.7986C24.6667 20.4606 24.017 22.0544 22.8605 23.2295C21.704 24.4047 20.1355 25.0649 18.5 25.0649C16.8645 25.0649 15.296 24.4047 14.1395 23.2295C12.983 22.0544 12.3333 20.4606 12.3333 18.7986C12.3333 17.1367 12.983 15.5429 14.1395 14.3678C15.296 13.1926 16.8645 12.5324 18.5 12.5324Z" fill="#F7F7F7"/>
</svg>
